<?xml version="1.0" encoding="utf-8"?>
<!-- Generator: Adobe Illustrator 27.0.0, SVG Export Plug-In . SVG Version: 6.00 Build 0)  -->
<svg version="1.1" id="Layer_1" xmlns="http://www.w3.org/2000/svg" xmlns:xlink="http://www.w3.org/1999/xlink" x="0px" y="0px"
	 viewBox="0 0 24 24" style="enable-background:new 0 0 24 24;" xml:space="preserve">
<style type="text/css">
	.st0-peach{fill:none;stroke:#F2C4A7;stroke-width:0.75;stroke-miterlimit:10;}
	.st1-peach{fill:#F89F6A;stroke:#F2C4A7;stroke-width:0.6;stroke-miterlimit:10;}
	.st2-peach{fill:#F2C4A7;stroke:#F2C4A7;stroke-width:0.5;stroke-miterlimit:10;}
	.st3-peach{fill:#C4D3E1;}
</style>
<path class="st0-peach" d="M8.28,4.85c0.7,1.53,1.92,2.34,1.9,2.36c-0.01,0.01-0.61-0.43-1.17-1.16C8.85,5.84,8.56,5.43,8.28,4.85
	C7.93,4.07,7.82,3.41,7.83,3.41C7.84,3.4,7.94,4.09,8.28,4.85z"/>
<path class="st1-peach" d="M20.84,12.89c-0.22,0.78-0.47,1.47-0.47,1.47c-0.13,0.35-0.27,0.73-0.49,1.24c-0.17,0.39-0.46,1.05-0.93,1.85
	c-0.11,0.19-0.55,0.94-1.3,1.89c-0.78,1-1.19,1.5-1.63,1.59c-0.51,0.11-1.03-0.16-2.07-0.69c-0.66-0.34-1.13-0.66-1.72-1.07
	c-0.44-0.3-1.03-0.71-1.76-1.32c0,0-1.13-0.94-2.14-2.09c0,0-0.33-0.36-0.56-0.76c-0.05-0.08-0.09-0.16-0.13-0.23
	c-0.01-0.02-0.02-0.04-0.03-0.07c-0.04-0.08-0.08-0.16-0.12-0.24c-0.24-0.5-0.42-1.04-0.54-1.61c-0.76-3.8,1.74-7.51,5.59-8.29
	c3.85-0.77,7.59,1.68,8.36,5.48c0.13,0.63,0.16,1.25,0.12,1.86c0,0.06-0.01,0.12-0.01,0.18c0,0-0.01,0.12-0.03,0.23
	C20.92,12.59,20.84,12.89,20.84,12.89z"/>
<path class="st1-peach" d="M16.92,11.45c0.16,0.79,0.24,1.52,0.24,1.52c0.04,0.37,0.09,0.78,0.12,1.33c0.02,0.43,0.06,1.15,0,2.07
	c-0.01,0.22-0.07,1.09-0.31,2.27c-0.25,1.24-0.39,1.87-0.74,2.16c-0.4,0.33-0.99,0.32-2.15,0.31c-0.74-0.01-1.3-0.08-2.02-0.18
	c-0.53-0.07-1.23-0.17-2.16-0.38c0,0-1.44-0.33-2.85-0.9c0,0-0.45-0.18-0.84-0.43c-0.08-0.05-0.15-0.1-0.22-0.15
	c-0.02-0.01-0.04-0.03-0.06-0.04c-0.07-0.05-0.14-0.11-0.21-0.16c-0.44-0.34-0.85-0.74-1.21-1.2c-2.39-3.05-1.83-7.49,1.26-9.92
	c3.09-2.42,7.54-1.91,9.93,1.13c0.4,0.5,0.71,1.04,0.94,1.61c0.03,0.06,0.05,0.11,0.07,0.17c0,0,0.04,0.11,0.08,0.22
	C16.86,11.15,16.92,11.45,16.92,11.45z"/>
<path class="st2-peach" d="M17.27,8.1c0.78,1.04,0.78,2.1,0.84,2.09c0.08-0.01,0.21-1.48-0.69-2.46c-0.54-0.59-1.28-0.82-1.32-0.76
	C16.06,7.04,16.71,7.36,17.27,8.1z"/>
<path class="st3-peach" d="M11.99,1.18c0-0.02,0.01-0.06,0.01-0.09c0.02-0.23,0.05-0.84-0.09-0.88c-0.12-0.03-0.19,0.32-0.57,0.65
	c-0.35,0.3-0.61,0.27-1.05,0.49c-0.28,0.14-0.66,0.39-1.01,0.89C9.06,2.59,8.84,3.13,8.83,3.8c0,0.36,0,0.78,0.24,0.93
	c0.42,0.25,1.26-0.44,1.41-0.56C10.93,3.81,11.75,2.96,11.99,1.18z"/>
<path class="st3-peach" d="M4.4,5.29C4.39,5.28,4.37,5.27,4.35,5.25C4.22,5.16,3.88,4.89,3.92,4.8c0.03-0.08,0.26,0.04,0.59-0.01
	c0.31-0.05,0.42-0.21,0.72-0.35c0.2-0.09,0.5-0.18,0.92-0.15c0.29,0.05,0.67,0.17,1.03,0.48C7.38,4.93,7.6,5.12,7.57,5.32
	C7.52,5.67,6.78,5.81,6.65,5.84C6.26,5.91,5.45,5.98,4.4,5.29z"/>
</svg>
