<?xml version="1.0" encoding="utf-8"?>
<!-- Generator: Adobe Illustrator 27.0.0, SVG Export Plug-In . SVG Version: 6.00 Build 0)  -->
<svg version="1.1" id="Layer_1" xmlns="http://www.w3.org/2000/svg" xmlns:xlink="http://www.w3.org/1999/xlink" x="0px" y="0px"
	 viewBox="0 0 35 24" style="enable-background:new 0 0 35 24;" xml:space="preserve">
<style type="text/css">
	.st0{fill:#FFFFFF;}
	.st1{fill:none;stroke:#FFFFFF;stroke-width:0.5;stroke-miterlimit:10;}
	.st2{fill:none;stroke:#F2C4A7;stroke-width:2;stroke-miterlimit:10;}
	.st3{fill:#F89F6A;stroke:#F2C4A7;stroke-width:1.25;stroke-miterlimit:10;}
	.st4{fill:#F2C4A7;stroke:#F2C4A7;stroke-width:0.75;stroke-miterlimit:10;}
	.st5{fill:#C4D3E1;}
	.st6{fill:none;stroke:#92A7CC;stroke-width:0.6;stroke-miterlimit:10;}
	.st7{fill:none;stroke:#FFFFFF;stroke-width:2;stroke-miterlimit:10;}
</style>
<g>
	<path class="st0" d="M10.08,3.82c0,0.08-0.01,0.14-0.02,0.2c-0.01,0.06-0.03,0.11-0.06,0.15C9.98,4.21,9.95,4.24,9.92,4.26
		C9.88,4.28,9.84,4.29,9.8,4.29H5.4v4.31h4.17c0.04,0,0.08,0.01,0.11,0.02c0.04,0.01,0.07,0.04,0.09,0.07s0.05,0.08,0.06,0.14
		c0.01,0.06,0.02,0.13,0.02,0.22c0,0.08-0.01,0.14-0.02,0.2C9.83,9.31,9.81,9.36,9.78,9.4C9.75,9.44,9.72,9.47,9.69,9.49
		C9.65,9.51,9.61,9.52,9.57,9.52H5.4v5.01c0,0.04-0.01,0.07-0.03,0.1c-0.02,0.03-0.05,0.05-0.09,0.07s-0.1,0.03-0.16,0.04
		c-0.07,0.01-0.15,0.02-0.26,0.02c-0.1,0-0.18-0.01-0.25-0.02c-0.07-0.01-0.13-0.03-0.17-0.04s-0.07-0.04-0.09-0.07
		c-0.02-0.03-0.03-0.06-0.03-0.1V3.88c0-0.21,0.06-0.36,0.17-0.44s0.22-0.12,0.33-0.12H9.8c0.04,0,0.08,0.01,0.11,0.03
		c0.04,0.02,0.07,0.05,0.09,0.09c0.03,0.04,0.05,0.09,0.06,0.15S10.08,3.74,10.08,3.82z"/>
	<path class="st0" d="M17.75,19.89c0,0.04-0.01,0.08-0.02,0.11c-0.01,0.03-0.04,0.05-0.08,0.07s-0.1,0.04-0.17,0.05
		c-0.07,0.01-0.17,0.02-0.28,0.02c-0.1,0-0.18,0-0.25-0.01s-0.12-0.03-0.17-0.05s-0.08-0.06-0.11-0.11s-0.06-0.1-0.08-0.17
		l-1.06-2.76c-0.12-0.31-0.25-0.6-0.4-0.88c-0.14-0.28-0.31-0.51-0.51-0.72s-0.44-0.36-0.72-0.48c-0.28-0.12-0.62-0.18-1.01-0.18
		H11.7v5.12c0,0.04-0.01,0.07-0.03,0.1c-0.02,0.03-0.05,0.05-0.09,0.07s-0.1,0.03-0.16,0.04c-0.07,0.01-0.15,0.02-0.26,0.02
		c-0.1,0-0.18-0.01-0.25-0.02c-0.07-0.01-0.13-0.03-0.17-0.04s-0.07-0.04-0.09-0.07c-0.02-0.03-0.03-0.06-0.03-0.1V9.26
		c0-0.21,0.06-0.36,0.17-0.44s0.22-0.12,0.33-0.12h2.14c0.28,0,0.51,0.01,0.7,0.02c0.18,0.01,0.35,0.03,0.51,0.06
		c0.43,0.08,0.81,0.2,1.13,0.37c0.32,0.17,0.59,0.38,0.8,0.63c0.21,0.25,0.37,0.53,0.47,0.84c0.1,0.31,0.15,0.65,0.15,1.02
		c0,0.38-0.05,0.71-0.16,1.01c-0.11,0.3-0.25,0.56-0.45,0.78c-0.19,0.23-0.42,0.42-0.69,0.58c-0.27,0.16-0.57,0.3-0.89,0.41
		c0.19,0.09,0.37,0.2,0.52,0.33c0.16,0.13,0.3,0.28,0.43,0.47c0.13,0.18,0.26,0.39,0.37,0.63c0.12,0.24,0.23,0.5,0.35,0.8l1.06,2.65
		c0.08,0.21,0.12,0.35,0.15,0.42C17.74,19.79,17.75,19.85,17.75,19.89z M15.86,11.76c0-0.49-0.11-0.9-0.33-1.23
		c-0.22-0.34-0.58-0.58-1.09-0.73c-0.17-0.05-0.35-0.08-0.55-0.1c-0.2-0.02-0.46-0.03-0.78-0.03H11.7v4.17h1.63
		c0.44,0,0.82-0.05,1.13-0.16c0.32-0.11,0.58-0.26,0.79-0.44c0.21-0.19,0.36-0.41,0.46-0.66C15.81,12.32,15.86,12.05,15.86,11.76z"
		/>
	<path class="st0" d="M25.92,10.5c0,0.69-0.1,1.31-0.29,1.85c-0.2,0.54-0.48,0.99-0.84,1.36s-0.8,0.65-1.32,0.84
		s-1.09,0.29-1.73,0.29c-0.58,0-1.11-0.09-1.6-0.27s-0.91-0.45-1.27-0.8c-0.35-0.35-0.63-0.79-0.83-1.32
		c-0.2-0.52-0.29-1.13-0.29-1.81V3.48c0-0.04,0.01-0.07,0.03-0.1c0.02-0.03,0.05-0.05,0.09-0.07s0.1-0.03,0.16-0.04
		c0.06-0.01,0.15-0.02,0.25-0.02c0.1,0,0.18,0.01,0.25,0.02c0.07,0.01,0.13,0.03,0.17,0.04s0.07,0.04,0.09,0.07
		c0.02,0.03,0.03,0.06,0.03,0.1v6.96c0,0.57,0.07,1.07,0.21,1.49c0.14,0.43,0.34,0.78,0.6,1.07c0.26,0.28,0.58,0.5,0.95,0.64
		c0.37,0.14,0.79,0.22,1.26,0.22c0.47,0,0.9-0.07,1.27-0.21c0.37-0.14,0.69-0.35,0.94-0.63s0.46-0.63,0.59-1.05
		c0.14-0.42,0.21-0.91,0.21-1.47V3.48c0-0.04,0.01-0.07,0.03-0.1c0.02-0.03,0.05-0.05,0.09-0.07s0.1-0.03,0.17-0.04
		c0.07-0.01,0.16-0.02,0.25-0.02s0.18,0.01,0.25,0.02c0.07,0.01,0.13,0.03,0.17,0.04s0.07,0.04,0.09,0.07
		c0.02,0.03,0.03,0.06,0.03,0.1V10.5z"/>
	<path class="st0" d="M33.21,11.97c0,0.53-0.09,1.01-0.27,1.45s-0.44,0.82-0.77,1.13c-0.33,0.32-0.74,0.56-1.22,0.74
		s-1.06,0.26-1.74,0.26h-1.48v4.35c0,0.04-0.01,0.07-0.03,0.1c-0.02,0.03-0.05,0.05-0.09,0.07s-0.1,0.03-0.16,0.04
		c-0.07,0.01-0.15,0.02-0.26,0.02c-0.1,0-0.18-0.01-0.25-0.02c-0.07-0.01-0.13-0.03-0.17-0.04s-0.07-0.04-0.09-0.07
		c-0.02-0.03-0.03-0.06-0.03-0.1V9.26c0-0.21,0.06-0.36,0.17-0.44s0.22-0.12,0.33-0.12h2.31c0.23,0,0.45,0.01,0.67,0.03
		c0.22,0.02,0.47,0.06,0.76,0.13c0.29,0.07,0.59,0.19,0.89,0.38c0.3,0.18,0.56,0.41,0.77,0.68c0.21,0.27,0.37,0.57,0.49,0.91
		S33.21,11.56,33.21,11.97z M32.08,12.06c0-0.49-0.1-0.91-0.29-1.25s-0.43-0.6-0.71-0.76s-0.57-0.27-0.87-0.32s-0.59-0.07-0.86-0.07
		h-1.62v4.94h1.55c0.5,0,0.91-0.06,1.25-0.19c0.33-0.13,0.62-0.3,0.84-0.52c0.23-0.22,0.4-0.49,0.52-0.8
		C32.02,12.77,32.08,12.43,32.08,12.06z"/>
</g>
<line class="st1" x1="1.96" y1="15.9" x2="10.08" y2="15.9"/>
<line class="st1" x1="17.75" y1="15.9" x2="25.92" y2="15.9"/>
<path class="st2" d="M342.39,273.15c2.78,6.14,7.7,9.36,7.62,9.44c-0.06,0.06-2.46-1.74-4.68-4.63c-0.65-0.85-1.84-2.51-2.91-4.84
	c-1.42-3.1-1.87-5.74-1.84-5.75C340.62,267.36,341.02,270.11,342.39,273.15z"/>
<path class="st3" d="M392.62,305.29c-0.87,3.11-1.89,5.87-1.89,5.87c-0.51,1.39-1.09,2.93-1.97,4.96c-0.68,1.56-1.85,4.21-3.72,7.39
	c-0.44,0.74-2.22,3.75-5.21,7.54c-3.14,3.99-4.75,5.99-6.51,6.37c-2.03,0.45-4.11-0.62-8.26-2.76c-2.64-1.36-4.51-2.64-6.9-4.28
	c-1.75-1.2-4.1-2.83-7.04-5.27c0,0-4.54-3.76-8.57-8.35c0,0-1.3-1.45-2.25-3.05c-0.18-0.31-0.36-0.62-0.53-0.94
	c-0.05-0.09-0.1-0.17-0.13-0.26c-0.17-0.31-0.32-0.63-0.47-0.95c-0.97-2.01-1.69-4.16-2.15-6.44c-3.05-15.21,6.96-30.04,22.37-33.14
	c15.4-3.09,30.36,6.73,33.42,21.93c0.51,2.5,0.65,5,0.46,7.43c-0.01,0.24-0.02,0.48-0.05,0.72c0,0-0.04,0.47-0.11,0.94
	C392.94,304.12,392.62,305.29,392.62,305.29z"/>
<path class="st3" d="M376.94,299.55c0.63,3.17,0.96,6.09,0.96,6.09c0.17,1.47,0.35,3.11,0.47,5.32c0.09,1.7,0.24,4.59,0.01,8.28
	c-0.05,0.86-0.29,4.34-1.25,9.08c-1.01,4.97-1.54,7.48-2.95,8.62c-1.61,1.31-3.95,1.29-8.62,1.26c-2.97-0.02-5.21-0.32-8.09-0.72
	c-2.1-0.29-4.94-0.68-8.66-1.53c0,0-5.74-1.31-11.41-3.6c0,0-1.82-0.71-3.38-1.71c-0.3-0.2-0.6-0.39-0.9-0.6
	c-0.09-0.06-0.17-0.11-0.24-0.17c-0.29-0.2-0.58-0.42-0.84-0.64c-1.77-1.36-3.39-2.95-4.82-4.78c-9.57-12.21-7.32-29.96,5.05-39.66
	c12.36-9.69,30.14-7.66,39.72,4.54c1.58,2.01,2.83,4.17,3.76,6.42c0.1,0.22,0.2,0.44,0.28,0.67c0,0,0.17,0.44,0.32,0.89
	C376.7,298.35,376.94,299.55,376.94,299.55z"/>
<path class="st4" d="M378.34,286.15c3.14,4.17,3.11,8.42,3.38,8.37c0.32-0.06,0.84-5.93-2.75-9.86c-2.15-2.34-5.12-3.29-5.3-3.02
	C373.5,281.9,376.1,283.18,378.34,286.15z"/>
<path class="st5" d="M357.35,260.33c0.01-0.09,0.03-0.22,0.04-0.38c0.08-0.94,0.19-3.37-0.37-3.54c-0.46-0.14-0.76,1.29-2.27,2.59
	c-1.41,1.21-2.46,1.09-4.2,1.96c-1.11,0.55-2.62,1.56-4.04,3.56c-0.85,1.46-1.75,3.6-1.76,6.29c-0.01,1.45-0.02,3.12,0.98,3.72
	c1.67,1.02,5.05-1.76,5.66-2.26C353.12,270.85,356.4,267.47,357.35,260.33z"/>
<path class="st6" d="M347.24,272.51c0.42-3.58,1.69-5.32,2.79-6.24c0.66-0.56,1.3-0.84,2.35-1.79c1.38-1.24,2.25-2.52,2.77-3.4"/>
<path class="st5" d="M328.91,276.18c-0.05-0.04-0.13-0.09-0.22-0.15c-0.53-0.38-1.87-1.44-1.71-1.82c0.13-0.32,1.02,0.18,2.38-0.06
	c1.26-0.22,1.67-0.85,2.89-1.41c0.78-0.36,1.99-0.72,3.67-0.59c1.15,0.2,2.68,0.69,4.11,1.91c0.77,0.66,1.66,1.42,1.54,2.24
	c-0.2,1.38-3.17,1.96-3.69,2.07C336.34,278.68,333.1,278.93,328.91,276.18z"/>
<path class="st6" d="M339.82,276.21c-2.08-1.41-3.56-1.51-4.53-1.33c-0.59,0.11-1.02,0.33-1.98,0.47c-1.26,0.19-2.33,0.08-3.02-0.03
	"/>
<g>
	<path class="st0" d="M432.2,271.95c0,0.3-0.02,0.57-0.07,0.81c-0.05,0.23-0.12,0.43-0.23,0.58c-0.11,0.15-0.23,0.27-0.37,0.35
		c-0.14,0.08-0.29,0.12-0.46,0.12h-17.61v17.23h16.7c0.16,0,0.32,0.03,0.46,0.09c0.14,0.06,0.26,0.16,0.37,0.3s0.18,0.33,0.23,0.56
		c0.05,0.23,0.07,0.53,0.07,0.88c0,0.3-0.02,0.57-0.07,0.81c-0.05,0.23-0.12,0.43-0.23,0.58c-0.11,0.15-0.23,0.27-0.37,0.35
		c-0.14,0.08-0.29,0.12-0.46,0.12h-16.7v20.04c0,0.14-0.04,0.27-0.11,0.39c-0.07,0.12-0.19,0.21-0.35,0.28s-0.38,0.13-0.65,0.18
		c-0.27,0.05-0.62,0.07-1.04,0.07c-0.4,0-0.74-0.02-1.02-0.07c-0.28-0.05-0.5-0.11-0.67-0.18s-0.28-0.16-0.35-0.28
		c-0.07-0.12-0.11-0.25-0.11-0.39V272.2c0-0.84,0.22-1.42,0.67-1.74s0.88-0.47,1.3-0.47h19.93c0.16,0,0.32,0.04,0.46,0.12
		c0.14,0.08,0.26,0.21,0.37,0.37c0.11,0.16,0.18,0.37,0.23,0.62S432.2,271.62,432.2,271.95z"/>
	<path class="st0" d="M462.85,336.2c0,0.16-0.03,0.3-0.09,0.42c-0.06,0.12-0.17,0.22-0.33,0.3s-0.39,0.15-0.69,0.19
		c-0.29,0.05-0.66,0.07-1.11,0.07c-0.4,0-0.73-0.02-1-0.05s-0.5-0.11-0.69-0.21s-0.34-0.25-0.46-0.42s-0.22-0.4-0.32-0.69
		l-4.25-11.04c-0.49-1.24-1.02-2.41-1.58-3.52c-0.56-1.1-1.24-2.06-2.04-2.87s-1.76-1.45-2.88-1.92c-1.12-0.47-2.47-0.7-4.04-0.7
		h-4.71v20.5c0,0.14-0.04,0.27-0.11,0.39c-0.07,0.12-0.19,0.21-0.35,0.28s-0.38,0.13-0.65,0.18c-0.27,0.05-0.62,0.07-1.04,0.07
		c-0.4,0-0.74-0.02-1.02-0.07c-0.28-0.05-0.5-0.11-0.67-0.18s-0.28-0.16-0.35-0.28c-0.07-0.12-0.11-0.25-0.11-0.39V293.7
		c0-0.84,0.22-1.42,0.67-1.74s0.88-0.47,1.3-0.47h8.54c1.12,0,2.06,0.03,2.79,0.09c0.74,0.06,1.41,0.14,2.02,0.23
		c1.73,0.3,3.25,0.8,4.54,1.48c1.29,0.68,2.36,1.52,3.2,2.51c0.84,1,1.47,2.12,1.88,3.38c0.41,1.25,0.62,2.61,0.62,4.06
		c0,1.5-0.21,2.84-0.63,4.03c-0.42,1.18-1.02,2.23-1.79,3.13c-0.77,0.9-1.7,1.68-2.78,2.34c-1.08,0.66-2.26,1.21-3.55,1.65
		c0.77,0.35,1.47,0.79,2.09,1.3c0.62,0.52,1.2,1.14,1.72,1.86c0.53,0.73,1.03,1.56,1.49,2.51s0.94,2.01,1.41,3.18l4.25,10.62
		c0.3,0.82,0.5,1.38,0.58,1.69C462.81,335.84,462.85,336.06,462.85,336.2z M455.29,303.68c0-1.95-0.43-3.59-1.3-4.94
		c-0.87-1.35-2.32-2.31-4.36-2.9c-0.68-0.19-1.42-0.32-2.21-0.4c-0.8-0.08-1.84-0.12-3.13-0.12h-5.62v16.7h6.54
		c1.76,0,3.27-0.22,4.54-0.65c1.27-0.43,2.31-1.02,3.15-1.78c0.83-0.75,1.44-1.63,1.83-2.64
		C455.1,305.95,455.29,304.86,455.29,303.68z"/>
	<path class="st0" d="M495.55,298.65c0,2.77-0.39,5.23-1.18,7.38c-0.79,2.16-1.9,3.97-3.36,5.45s-3.21,2.6-5.27,3.36
		s-4.37,1.14-6.93,1.14c-2.32,0-4.46-0.36-6.42-1.09s-3.64-1.8-5.06-3.22c-1.42-1.42-2.52-3.18-3.3-5.27
		c-0.79-2.1-1.18-4.52-1.18-7.26V270.6c0-0.14,0.04-0.27,0.11-0.39c0.07-0.12,0.19-0.21,0.37-0.28s0.39-0.13,0.65-0.18
		c0.26-0.05,0.6-0.07,1.02-0.07c0.4,0,0.74,0.02,1.02,0.07c0.28,0.05,0.5,0.11,0.67,0.18s0.28,0.16,0.35,0.28
		c0.07,0.12,0.11,0.25,0.11,0.39v27.84c0,2.27,0.28,4.27,0.83,5.98c0.55,1.71,1.35,3.13,2.39,4.27c1.04,1.14,2.31,1.99,3.8,2.57
		c1.49,0.57,3.17,0.86,5.04,0.86c1.9,0,3.59-0.28,5.08-0.83c1.49-0.55,2.75-1.39,3.78-2.51s1.82-2.53,2.37-4.2
		c0.55-1.68,0.83-3.64,0.83-5.89V270.6c0-0.14,0.04-0.27,0.11-0.39c0.07-0.12,0.19-0.21,0.35-0.28s0.39-0.13,0.67-0.18
		c0.28-0.05,0.62-0.07,1.02-0.07s0.74,0.02,1.02,0.07c0.28,0.05,0.5,0.11,0.67,0.18s0.28,0.16,0.35,0.28
		c0.07,0.12,0.11,0.25,0.11,0.39V298.65z"/>
	<path class="st0" d="M524.72,304.53c0,2.11-0.36,4.04-1.07,5.8s-1.74,3.27-3.08,4.54s-2.96,2.25-4.89,2.95s-4.24,1.05-6.96,1.05
		h-5.91v17.4c0,0.14-0.04,0.27-0.11,0.39c-0.07,0.12-0.19,0.21-0.35,0.28s-0.38,0.13-0.65,0.18c-0.27,0.05-0.62,0.07-1.04,0.07
		c-0.4,0-0.74-0.02-1.02-0.07c-0.28-0.05-0.5-0.11-0.67-0.18s-0.28-0.16-0.35-0.28c-0.07-0.12-0.11-0.25-0.11-0.39V293.7
		c0-0.84,0.22-1.42,0.67-1.74s0.88-0.47,1.3-0.47h9.25c0.91,0,1.8,0.04,2.67,0.12c0.87,0.08,1.88,0.26,3.04,0.53
		c1.16,0.27,2.34,0.77,3.55,1.51s2.23,1.64,3.08,2.71c0.84,1.07,1.49,2.29,1.95,3.66S524.72,302.89,524.72,304.53z M520.18,304.92
		c0-1.97-0.39-3.64-1.16-5.01s-1.72-2.39-2.83-3.06s-2.27-1.09-3.48-1.27s-2.35-0.26-3.43-0.26h-6.47v19.76H509
		c1.99,0,3.66-0.25,4.99-0.76c1.34-0.5,2.46-1.2,3.38-2.09c0.91-0.89,1.61-1.96,2.09-3.22
		C519.94,307.76,520.18,306.39,520.18,304.92z"/>
</g>
<line class="st7" x1="399.72" y1="320.28" x2="432.2" y2="320.28"/>
<line class="st7" x1="462.85" y1="320.28" x2="495.55" y2="320.28"/>
</svg>
