<?xml version="1.0" encoding="utf-8"?>
<!-- Generator: Adobe Illustrator 27.0.0, SVG Export Plug-In . SVG Version: 6.00 Build 0)  -->
<svg version="1.1" id="Layer_1" xmlns="http://www.w3.org/2000/svg" xmlns:xlink="http://www.w3.org/1999/xlink" x="0px" y="0px"
	 viewBox="0 0 24 24" style="enable-background:new 0 0 24 24;" xml:space="preserve">
<style type="text/css">
	.st0-peach{fill:#F89F6A;stroke:#F2C4A7;stroke-width:0.6;stroke-miterlimit:10;}
	.st1-peach{fill:#F2C4A7;stroke:#F2C4A7;stroke-width:0.5;stroke-miterlimit:10;}
	.st2-peach{fill:#C4D3E1;}
</style>
<path class="st0-peach" d="M20.36,13.54C20.14,14.32,19.89,15,19.89,15c-0.13,0.35-0.27,0.73-0.49,1.24c-0.17,0.39-0.46,1.05-0.93,1.85
	c-0.11,0.19-0.55,0.94-1.3,1.89c-0.78,1-1.19,1.5-1.63,1.59c-0.51,0.11-1.03-0.16-2.07-0.69c-0.66-0.34-1.13-0.66-1.72-1.07
	c-0.44-0.3-1.03-0.71-1.76-1.32c0,0-1.13-0.94-2.14-2.09c0,0-0.33-0.36-0.56-0.76c-0.05-0.08-0.09-0.16-0.13-0.23
	c-0.01-0.02-0.02-0.04-0.03-0.07C7.07,15.27,7.03,15.19,7,15.11c-0.24-0.5-0.42-1.04-0.54-1.61C5.7,9.7,8.2,5.99,12.05,5.21
	c3.85-0.77,7.59,1.68,8.36,5.48c0.13,0.63,0.16,1.25,0.12,1.86c0,0.06-0.01,0.12-0.01,0.18c0,0-0.01,0.12-0.03,0.23
	C20.44,13.24,20.36,13.54,20.36,13.54z"/>
<path class="st0-peach" d="M16.44,12.1c0.16,0.79,0.24,1.52,0.24,1.52c0.04,0.37,0.09,0.78,0.12,1.33c0.02,0.43,0.06,1.15,0,2.07
	c-0.01,0.22-0.07,1.09-0.31,2.27c-0.25,1.24-0.39,1.87-0.74,2.16c-0.4,0.33-0.99,0.32-2.15,0.31c-0.74-0.01-1.3-0.08-2.02-0.18
	c-0.53-0.07-1.23-0.17-2.16-0.38c0,0-1.44-0.33-2.85-0.9c0,0-0.45-0.18-0.84-0.43c-0.08-0.05-0.15-0.1-0.22-0.15
	c-0.02-0.01-0.04-0.03-0.06-0.04c-0.07-0.05-0.14-0.11-0.21-0.16c-0.44-0.34-0.85-0.74-1.21-1.2c-2.39-3.05-1.83-7.49,1.26-9.92
	c3.09-2.42,7.54-1.91,9.93,1.13c0.4,0.5,0.71,1.04,0.94,1.61c0.03,0.06,0.05,0.11,0.07,0.17c0,0,0.04,0.11,0.08,0.22
	C16.38,11.8,16.44,12.1,16.44,12.1z"/>
<path class="st1-peach" d="M16.79,8.75c0.78,1.04,0.78,2.1,0.84,2.09c0.08-0.01,0.21-1.48-0.69-2.46c-0.54-0.59-1.28-0.82-1.32-0.76
	C15.58,7.69,16.23,8.01,16.79,8.75z"/>
<path class="st2-peach" d="M9.86,1.48C9.86,1.45,9.85,1.42,9.84,1.38c-0.06-0.23-0.23-0.81-0.38-0.8c-0.12,0.01-0.07,0.37-0.32,0.8
	c-0.23,0.4-0.49,0.46-0.83,0.81C8.09,2.41,7.82,2.77,7.64,3.36c-0.08,0.41-0.12,0.99,0.1,1.63C7.86,5.33,8,5.73,8.28,5.79
	c0.48,0.1,1.05-0.83,1.15-1C9.73,4.31,10.22,3.24,9.86,1.48z"/>
<path class="st2-peach" d="M4.63,5.13C4.62,5.12,4.6,5.1,4.59,5.08c-0.1-0.13-0.36-0.47-0.3-0.55c0.05-0.07,0.24,0.11,0.58,0.14
	c0.32,0.03,0.46-0.1,0.79-0.15c0.21-0.04,0.53-0.05,0.92,0.09c0.26,0.12,0.6,0.34,0.87,0.73C7.6,5.54,7.76,5.78,7.68,5.97
	C7.54,6.3,6.79,6.25,6.66,6.24C6.27,6.21,5.47,6.06,4.63,5.13z"/>
</svg>
